<svg viewBox="0 0 560 508" xmlns="http://www.w3.org/2000/svg">
   <g id="back-ground-cl">
        <rect fill="none" width="560" height="508" />
		<ellipse opacity="0.1" cx="261" cy="443" rx="151.749" ry="43.289"/>
    </g>
  
	<g id="body">
        <defs>
            <clipPath id="shape">
				<path fill="none" d="M80.354,311.865c1.881,11.951,3.21,24.146,6.746,35.633c3.335,10.833,8.81,21.095,14.168,31.169c1.847,3.472,5.802,6.637,9.511,8.023c2.532,0.947,3.998,2.049,5.556,3.93c8.374,10.106,16.634,20.319,25.386,30.091c4.119,4.6,9.162,7.987,14.127,12.364l8.917,6.146c2.813,2.156,32.174,18.939,65.833,22.834c10.35,1.197,42.446,2.958,83.833-7.5c40.729-10.292,62.606-28.111,65.303-30.238c14.003-11.042,26.176-23.948,34.953-39.37c4.928-8.658,11.619-14.289,19.854-18.821c2.511-1.382,5.259-2.334,7.895-3.49c-0.053-0.521-0.051-0.5-0.104-1.021c-4.757-1.01-9.515-2.021-15.813-3.357c6.736-3.991,12.46-7.381,19.375-11.478c-4.988-0.935-8.759-1.642-13.201-2.475c4.659-8.368,13.837-9.907,20.906-15.937c-5.214-0.78-9.49-1.42-15.453-2.312c4.521-3.891,8.005-6.89,11.799-10.157c-2.396-0.578-4.441-1.071-7.726-1.863c2.127-3.209,3.891-5.87,5.107-7.706c-0.293-2.268-1.029-4.199-0.688-5.915c2.376-11.908,5.401-23.701,7.373-35.67c1.675-10.171,6.139-18.563,13.331-25.624c3.317-3.257-15.848-6.99-16.538-6.636c-9.452,4.851-19.39,8.233-30.062,10.111c-0.331-1.353-0.528-2.14-0.716-2.93c-6.393-26.858-15.529-52.656-29.876-76.39c-23.384-38.685-55.624-65.913-100.262-76.856c-6.771-1.66-13.699-2.676-21.348-4.142c-11.329-0.809-11.246-0.976-20.194-0.678c-1.791,0.174-3.085,0.363-4.384,0.417c-35.565,1.47-66.244,14.862-92.475,38.528c-28.936,26.108-46.569,59.085-57.047,96.195c-7.121,25.222-9.394,50.979-8.157,77.11c0.093,1.964-0.219,4.657-1.459,5.84C81.208,303.141,79.634,307.295,80.354,311.865z"/>
            </clipPath>
        </defs>
        <g clip-path="url(#shape)">
            <rect fill="#bird_color" width="640" height="480" />
        </g>
    </g>
	<g id="fur">
		#bird_fur
	</g>		
	<g id="foot">
		#foot
	</g>
	<g id="crest">
		#crest
	</g>
	<g id="tail">
		#tail
	</g>
	<g id="wing">
		#wing
	</g>
	<g id="mouth">
		#mouth
	</g>
	<g id="eye">
		#eye
	</g>
</svg>