    <svg id="medusa10x797eb860b348fdf1a5d03c33a6536fda" xmlns="http://www.w3.org/2000/svg" viewBox="0 0 250 350">
            <svg class="medusa baby" xmlns="http://www.w3.org/2000/svg" width="250" height="350" viewBox="0 0 122 150">
    <defs>
        <style>
            .medusa-baby-cls-1 {
                fill: #874207;
            }

            .medusa-baby-cls-1, .medusa-baby-cls-10, .medusa-baby-cls-11, .medusa-baby-cls-12, .medusa-baby-cls-2, .medusa-baby-cls-3, .medusa-baby-cls-4, .medusa-baby-cls-5, .medusa-baby-cls-6, .medusa-baby-cls-7, .medusa-baby-cls-8, .medusa-baby-cls-9 {
                fill-rule: evenodd;
            }

            .medusa-baby-cls-2 {
                fill: #994f0f;
            }

            .medusa-baby-cls-3 {
                fill: #c37a3a;
            }

            .medusa-baby-cls-4 {
                opacity: 0.2;
            }

            .medusa-baby-cls-5 {
                fill: #f6780c;
            }

            .medusa-baby-cls-10, .medusa-baby-cls-11, .medusa-baby-cls-6 {
                fill: #fff;
            }

            .medusa-baby-cls-6 {
                fill-opacity: 0.3;
            }

            .medusa-baby-cls-7 {
                fill-opacity: 0.13;
            }

            .medusa-baby-cls-8 {
                fill-opacity: 0.45;
            }

            .medusa-baby-cls-10, .medusa-baby-cls-9 {
                fill-opacity: 0.2;
            }

            .medusa-baby-cls-11 {
                fill-opacity: 0.18;
            }

            .medusa-baby-cls-12 {
                fill: #fff000;
            }

            .medusa-young-cls-1 {
                fill: #ffaa06;
            }

            .medusa-young-cls-1, .medusa-young-cls-10, .medusa-young-cls-11, .medusa-young-cls-12, .medusa-young-cls-13, .medusa-young-cls-2, .medusa-young-cls-3, .medusa-young-cls-4, .medusa-young-cls-5, .medusa-young-cls-6, .medusa-young-cls-7, .medusa-young-cls-8, .medusa-young-cls-9 {
                fill-rule: evenodd;
            }

        </style>
    </defs>


    <g id="Back">
        <path id="back-2" data-name="back" class="medusa-baby-cls-1 medusa-body"
              d="M77.634,83.4L58.092,80.472c-12.525.742-26.024-1.1-36.561-5.593-1.312-.559-1.1.34-2.166,0.194-3.719-.512-8.923-4.094-10.243-7.038a133.021,133.021,0,0,0,29.96-.419l9.7,1.034a170.089,170.089,0,0,1,28.96,5.209c10.711,3.083,21.872,2.882,31.632,6.13-0.005.07-.01,0.141-0.016,0.211-3.751.556-5.735,2.368-8.865,3.516s-20.394,2.34-22.941.742Z"/>
    </g>
    <g id="Fins">
        <path id="fins2" class="medusa-baby-cls-2 medusa-fin_top"
              d="M99.118,121.755l0.422,0.393-0.408,2.22-1.568,1.207q-0.166,2.562-.333,5.124l-0.5.546-0.212,1.863c3.194,0.9,1.084,12.986-.773,15.846l-1.779.325c-1.683-3.538-4.609-4.451-7.281-5.2l-0.9-3c-0.437,1.2-.632,2.568-1.538,2.314l0.694-3.924-0.618-.585-1.915.15c-1.108-3.679,1.033-4.162,1.344-6.9l0.151-1.33c0.11-.969-1.12-1.642-0.934-3.282l2.428-.83,0.95-1.243c0.442-3.89-1.442-7.7-.51-11.675a4.734,4.734,0,0,0,1.78-3.894l-1.3-6.679c-0.444-.124-2.938-7.97-2.938-9.2l-0.769-1.451c-2.257-.633-3.287-4.252-3.436-8.377-0.164-4.559,1.57-7.481,1.571-11.366L80.5,68.757l2.352,0.385c2.422,0.679,4.915.143,7.041,0.739,0.328,3.084.451,8.361-.681,11.478h0c0.016-.316.035-0.629,0.049-0.947l-0.222.891L89.2,81.358c-0.318,6.2-.955,11.991.271,17.923,0.453,2.194,2.755,6.043,1.777,8.736l-0.1.186a0.912,0.912,0,0,0-.34.652l0.34-.652a2.45,2.45,0,0,1,1.891-.095l0.587,2.5a3.057,3.057,0,0,1,3.694-1.3l-0.574,3.134,1.809,1.331-0.725,4.739C98.34,120.179,97.993,121.439,99.118,121.755Zm-39.675-1.243,0.689,7.216c-0.452.193-6.6,9.144-7.106,10.811-0.351.15-1.578,2.48-2.066,1.154-0.437.186-.264-5.18-0.333-5.866-0.347-3.475-1.642-3.065-2.191-5.484l-0.957-6.419c-0.831.354-2.271-.55-2.787-1.953-0.068-.683.093-2.771,0.5-2.943l-0.152-.891-1.2-.988-0.217-.59c-0.185-1.849.728-4,1.708-4.415l-1.06-5.013-0.1.858-1.84,2.779q0.03,1.245.06,2.488c-0.937-.263-1.963,3.27-1.81,4.709,0.416,1.379.991,0.827,1.658,1.015l1.4-.019c0.044,0.012.041,6.437,0.134,7.314l1.9,1.63-0.951,3.99,0.753,2.408c-0.24,2.112-1.724,3.146-2.474,4.8-1.645,3.621-1.211,9.957-4.3,9.091a8.461,8.461,0,0,0-6.346-5.761l-1.507-1.8c-1.562-3.283.771-7.241,0.771-10.629l-1.054-4.414,0.876-5.52-1.19-3.766c-0.036-1.007,1.011-5.071,1.464-4.944,0.309-2.72-1.567-6.37-.073-8.67,0.992-.725,2.045-0.4,2.865-1.667,1.112-4.747-1-11.786-1.639-16.522a124.087,124.087,0,0,1-.521-27.74l0.271,0.076c3.1,4,5.968,1.125,9.106,2,1.446,3.04.594,6.862,0.137,10.614l-0.764.458,0.715-.064c0.015-.131.034-0.262,0.05-0.393l0.162-.1c-0.876,4.908-1.605,23.422-1.107,28.108L41.6,99.505l0.226,0.75,2.547,3.872-0.062.545c1.546-.977,3.437-7.606,3.83-10.887l3.1-.912c1.312-4.326,2.134-14.193,1.041-19.013-0.564-2.486-1.876-3.913-2.131-6.465L50,67.41l0.022-.1-0.346.128L50,67.41l-0.22.964c-1.3.556-.81-7.17-0.638-8.6l3.866-3.7,0.4-.443c0.563-.24,2.066,7.973,2.362,9.1,1.541,5.845,4.091,14.338,3.748,21.069l-1.1,6.748a9.938,9.938,0,0,0,1.766,4.709c0.252,2.518-1.3,4.515-1.347,7.4-0.059,3.9,1.994,5.81,2.072,9.358ZM29.1,82.493L26.714,88.14a14.464,14.464,0,0,0,.632,5.669C27.056,96.367,25.235,97.2,24.6,99.9c-0.855,3.651.612,6.868-.048,10.283l-2.67,5.154-0.861,7.31c-0.449-.126-7.868,4.158-8.671,5.393-0.349-.1-1.942,1.273-2.111-0.317-0.435-.122.827-5.089,0.906-5.787,0.4-3.529-.859-4.026-0.858-6.693l0.454-6.737c-0.826-.231-1.946-2.071-2.125-3.753,0.079-.694.655-2.562,1.056-2.45l0.045-.948L8.83,99.6l-0.075-.707c0.213-1.878,1.484-3.291,2.458-3.017q0.038-2.941.077-5.882c1.56,0.437,4.791-4.773,5.852-7.694l3,1.253C22.222,80.347,25,71.557,25,66.243c0-2.74-.9-4.989-0.6-7.582l-0.145-.092,0.039-.075-0.34-.115,0.3,0.19-0.4.763c-1.3-.364.742-7.348,1.193-8.589l4.267-.863,0.452-.148c0.56,0.157.232,8.966,0.269,10.234C30.232,66.559,30.8,76.349,29.1,82.493Z"/>
                        <path id="fins1" class="medusa-baby-cls-3 medusa-fin_bottom"
              d="M101.862,106.742q-0.1.294-.2,0.59l-1.3,1.313c-0.033.274-.065,0.549-0.1,0.823,0.482-.009.851,1.719,0.833,2.331-0.473,1.4-2.058,2.734-3.049,2.752L97.5,120.425c-0.421,2.286-1.954,2.436-2.049,5.549-0.019.615,0.652,5.15,0.131,5.159-0.447,1.326-2.069-.2-2.488-0.191-0.731-1.234-8.623-6.533-9.162-6.524q0.081-3.227.162-6.454l-2.269-5A7.01,7.01,0,0,1,82,110.947a9.752,9.752,0,0,0-1.293,1.509c-1.6,2.621-1.241,7.142-4.085,6.77a3.892,3.892,0,0,1-.866,1.465L73.734,121.9c-2.829.05-6.374,0.628-8.242,3.547-3.7.065-2.2-5.271-3.528-8.735-0.418-1.091-1.277-2.01-1.756-3.086a13.675,13.675,0,0,0-5.73-2.172l-0.9-2.225c-0.437.893-.632,1.905-1.538,1.717l0.694-2.912-0.618-.434-1.915.111c-1.108-2.73,1.033-3.088,1.344-5.12l0.151-.988c0.11-.718-1.12-1.218-0.934-2.435l2.427-.615,0.95-.923c0.442-2.886-1.441-5.713-.51-8.664,0.948-.717,1.779-1.305,1.78-2.89l-1.3-4.956c-0.444-.092-2.938-5.915-2.938-6.826L50.4,73.217c-2.257-.47-3.287-3.155-3.436-6.216-0.164-3.383,1.57-5.552,1.571-8.435q-0.128-1.5-.255-3.008l2.352,0.286c2.422,0.5,4.915.106,7.041,0.548,0.328,2.288.451,6.2-.681,8.518h0c0.016-.235.035-0.466,0.05-0.7l-0.222.662,0.172,0.041c-0.318,4.6-.955,8.9.271,13.3,0.453,1.628,2.755,4.484,1.777,6.483l-0.1.138a0.651,0.651,0,0,0-.34.484l0.34-.484a3.239,3.239,0,0,1,1.891-.07l0.587,1.854a3.663,3.663,0,0,1,3.694-.963l-0.574,2.326,1.032,0.563q0.006-.2.012-0.4l3.555-2.76,0.38-.593,1.439-3.31a34.406,34.406,0,0,0,.941-4.067c-0.456-1.963-1.035-3.894-1.325-5.475a68.544,68.544,0,0,1-.521-20.586l0.271,0.056a5.406,5.406,0,0,0,4.058,1.626,7.51,7.51,0,0,1,1.752-4.84c3.763-.066,6.623,3.031,10.835.278l0.326-.006a68.2,68.2,0,0,1-1.539,11.707l0.106,0.048L90.657,61.9c0.324,1.163,1.576,7.6.019,7.624l-0.339-.741,0.377-.1-0.41.024,0.033,0.073-0.182.047c-0.07,2.287-1.461,4.018-1.894,6.367-0.839,4.555.978,12.7,2.874,15.9l3.664-.416c0.764,2.737,3.671,7.911,5.543,7.879q-0.421,2.529-.842,5.058C100.669,103.6,101.913,105.086,101.862,106.742Zm-20.38-3.8,1.9,1.211-0.951,2.96,0.422,1a9.013,9.013,0,0,0,.546-3.976c-0.241-1.951-1.52-3.061-2.008-4.561C81.408,100.953,81.43,102.578,81.482,102.938Zm-0.134-5.427a4.072,4.072,0,0,1,.022.489,9.284,9.284,0,0,0,1.449-4.412l-1.317-3.8-0.369.413a15.2,15.2,0,0,1-1.045,2.76q0.005,0.157.01,0.313a0.51,0.51,0,0,0-.151.021,6.178,6.178,0,0,0-.557,2.109c0.285-.005.576,1.019,0.76,2.115Zm-15.33-6.928-0.391,1.9c0.5,1.236.155,2.172,1.281,2.406l0.422,0.292-0.407,1.647-1.568.9L65.2,99.466l0.829,0.166c0.8-.014,1.378.585,2.076-0.506,0.4-1.2-.222-4.453-1.346-4.434l0.463-2.12ZM82.307,72.132c-0.947,2.489-2.722,5.645-3.756,8.722,0.021,0.264.044,0.507,0.073,0.707l0.693,3,0.226,0.556,1.239,1.4c-0.359-5.279,1.349-12.109,2.5-17.131C82.966,70.334,82.64,71.256,82.307,72.132Zm-37.453-.9c-0.824,3.5-2.586,6.38-5.293,6.427l-1.117,1.075c-0.194,1.052-4.317,7.231-4.849,7.241l-2.552,5.441c-0.337,1.83.5,2.692,1.44,3.728,0.447,3.612-2.331,6.465-2.436,9.9l0.9,1.274,2.673,1.243c-0.044,1.447-1.572,1.755-1.6,2.609q-0.018.586-.036,1.174c-0.074,2.415,2.323,3.3.46,6.208L30.258,117l-0.806.366q0.091,1.757.181,3.515c-1.087.02-1.1-1.193-1.411-2.321L26.7,120.936c-3.2.057-6.729,0.2-9.233,2.861l-2-.669c-1.692-2.858-2.217-13.684,1.614-13.752q0.025-.822.05-1.643l-0.488-.578,0.426-4.465-1.62-1.379-0.12-1.992,0.55-.244c1.35-.024,1.149-1.181,1.992-2.5l-0.088-4.221,2.3-.744Q20,90.205,19.917,88.8a4.323,4.323,0,0,1,4.062,1.922l1.074-2.013a3.813,3.813,0,0,1,2.17.5l0.29,0.634a0.77,0.77,0,0,0-.29-0.634l-0.083-.181c-0.7-2.523,2.564-5.317,3.435-7.1,2.355-4.817,2.535-9.922,3.149-15.3l0.208-.01L33.815,65.8c-0.034.276-.061,0.548-0.093,0.823H33.717c-0.815-2.92.163-7.417,1.029-9.989,2.55-.045,5.344.962,8.25,0.91l2.778,0.186-0.936,3.418C44.224,64.477,45.764,67.362,44.854,71.234Z"/>
        <path id="Color_Fill_19" data-name="Color Fill 19" class="medusa-baby-cls-4"
              d="M26.75,65.75l39.5,1.5,19,5c3.976,0.527,4.028-3.2,7.5-1,2.235,1.442,2.971,3.857,3,7.5l-2.5,4.5-4.5,2c-5.912-3.188-13.278-7.892-21.5-6l-1.5,6h-2c-1.846-2.385-3.79-7.183-5.5-8.5-7.149-2.917-15.755,5.712-22,5l3-3.5-2-1.5-6-1.5-3,3-4-1.5Zm-3.5.5h1l-2,7-1-.5,0.5-4.5Z"/>
    </g>
    <g id="Head">
        <path id="head-2" data-name="head" class="medusa-baby-cls-5 medusa-head"
              d="M67.86,1.54c42.585,3.06,65.625,38.426,46.964,78.495-1.1-.13-3.7,1.617-6.8,2.521a31.8,31.8,0,0,1-6.924,1.045l0.257-5.523S66.641,70.919,47.1,69.21c-9.884-.865-27.866,1.125-27.866,1.125L18.8,75.662a32.971,32.971,0,0,1-9.265-2.877c-3.2-1.77-4.627-3.957-5.613-4.236-5.4-5.544-2.138-21.228.411-28.916,7.461-22.5,21.671-32.9,43.139-37.65Z"/>
        <path id="Color_Fill_6" data-name="Color Fill 6" class="medusa-baby-cls-6"
              d="M63.636,22.944c2.445,0.183,3.611,1.066,4.951,1.547,1.857,0.666,3.2-1.586,5.775-.608,3.066,1.164,4.825,4.96,7.011,7.072,2.926,0.015,4.242.894,6.213,1.657l6.443,1.455c2.967,1.72,4.6,11.147,5.033,15.139,5.858,3.084,8.794,5.1,6.087,12.782L105.09,65.1c-0.765,2.967-3.535,5.819-5.705,7.073-5,2.889-10.656-2.112-11.085-6.538-8.74.389-18.033-.509-27.383,0.5-4.084.44-6.3-2.086-10.038-1.546a23.57,23.57,0,0,1-8.49.148h-7.63l-4.932-1.768c-1.943.442-4.538,2.263-7,.056-4.808-4.314-.86-8.116.834-11.953-7.352-7.411.9-11.244,6.095-13.943,0.39-5.676,1.964-5.458,5.343-7.773,1.5-1.029,2.064-2.673,4.286-2.966L46.23,28.1C50.937,27.285,59.586,25.028,63.636,22.944ZM33.651,43.482l-0.039.442Z"/>
        <path id="Color_Fill_7" data-name="Color Fill 7" class="medusa-baby-cls-7"
              d="M68.93,59.218c5.655,0.585,3.026,4.2,5.425,5.82,2.995,2.018,11.224-3.165,15.8-1.29,2.155,0.884,2.013,2.653,3.227,4.291,1.523,2.056,3.246.942,2.959,4.936-2.1,3.513-3.387.919-6.445,1l-4.494.5-3.136-.5L79.736,76.2c-4.4,1.838-9.839-2.853-11.87-4.825-4.126,1.269-12.971,7.419-18.84,4.587l-3.9-3.9-8.911.111c-3.041-1.054-10.579-7.657-6.643-11.271,1.194-1.579,16.552-3.9,20.119-2.248,2.306,1.068,3.975,3.508,5.693,5.175C61.657,63.688,64.607,62.039,68.93,59.218Z"/>
        <path id="Color_Fill_8" data-name="Color Fill 8" class="medusa-baby-cls-8"
              d="M19.866,70.59c3.055,0.267,2.841-.8,5.9-0.536,10.03-.858,22.5-0.877,33.469,1.354l5.045-.083c0.981,0.263,2.852,1.138,3.812,1.361,0.71-.113,1.429.322,2.139,0.209,4.361,0.164,6.605.226,9.59,2.331a6.3,6.3,0,0,0,2.61-.213c2.793,1.689,9.43,1.495,14.044,2.629,5.932,1.458,10.3-.127,4.823.365,0.277,0.84-.561,4.739-0.285,5.58,2.015-.212,4.717-0.5,6.544-0.893,1.185,0.045,3.27-2.258,4.455-2.212,3.086-.273,3.344-2.428,4.75-4.389l0.015-.174-0.4-.21-1.387,1.453-2.662-.758,1.97-3.327c1.308-2.878.862-6.819,1.09-10.052-1.341,1.308-.619,5.2-1.248,7.064-0.907,2.682-2.7,4.872-4.18,6.982l-9.3-1.688,0.761-1.508q0.061-.694.122-1.389a3.488,3.488,0,0,0-2.3,2.248c-2.269.994-8.8-.65-12.052-1.4-0.293-.621-0.016-2.132-0.143-3.162l-0.386-.384c-0.868.6-1.193,1.9-1.33,3.208-1.8.368-4.54-1.227-7.231-1.332l-0.265-1.773-0.716.987c-2.55,1.383-7.822-1.534-9.329-1.341l-1.549.914c-3.014-1.556-9.117-1.057-12.825-2.172a8.927,8.927,0,0,0-.631-4.779l0.03-.347c-1.084.906-.9,3.305-0.842,4.825-6.227,1.1-15.735-.466-21.594-0.315q-0.064-1.668-.128-3.335l-0.4-.21a6.122,6.122,0,0,0-.736,3.609,30.263,30.263,0,0,1-7.784.194l-1.556-3.81-0.595-.4-0.223.155q0.145,1.937.291,3.874c-2.608-.087-1.271,1.771-5.023.9-4.563-3.2-4.892-8.39-5.046-12.973L8.97,55.639c-1.9,3.206.16,9.63,1.259,12.007l-0.015.174-4.985-.611L3.775,64.632,3.6,64.266l-0.208-.018c0.181,2.218.856,4.249,2.461,5.464L7.262,70.36c-0.051.579,1.164,1.092,1.114,1.671,1.324,1.43,6.395,2.831,10.12,3.332C18.938,73.825,19.446,72.385,19.866,70.59Zm-10.831-1.3c0.441,0.4.192,0.308,0.818,0.246Z"/>
        <path id="Color_Fill_13" data-name="Color Fill 13" class="medusa-baby-cls-9"
              d="M66.819,1.665c31.839,2.263,50.926,18.793,54.224,46.392,0.577,4.834.37,12.871-1.165,18.16-1.451,4.995-3.353,9.6-5.043,14.035l-8.776-1.436c1.392-2.594,1.395-5.976,2.323-9.6C111.021,58.934,110.4,51,106.228,42.974c-2.183-4.2-4.761-10.071-8.171-13.187-10.841-9.9-37.784-17.173-57.163-12.8C28.147,19.869,11.853,36.538,6.538,48.727c-2.267,5.2-.654,13.685-3.307,18.418l-0.172-.461c-4.151-5.052.519-24.3,2.592-29.616C13.294,17.461,27.036,5.987,47.066,2.163Z"/>
        <path id="Color_Fill_12" data-name="Color Fill 12" class="medusa-baby-cls-10"
              d="M66.739,0.989c11.184,0.8,22.192,3.835,29.555,8.6l8.37,6.077-0.249.424a11.761,11.761,0,0,1-2.2-1.529c-0.019.221-.039,0.442-0.058,0.663a1.163,1.163,0,0,1,.534,1.16l-0.4-.258c-0.751.8-4.2,1.324-5.355,0.645l0.479-.626c-4.338,1.9-8.165-1.751-12.387-3.756C81.551,10.737,65.1,8.346,58.413,8.947c-7.348.66-13.865,1.024-19.986,3.151-6.475,2.25-27.6,21.769-30.872,28.255C4.708,46,3.323,55.02,1.282,61.184l-0.421-.037c2.8-35.677,16.281-50.665,41.132-58.315C46.579,1.421,52.567,1.807,58.019,1.34,60.83,1.1,64.552,2.13,66.739.989Zm34.579,14.161c0.277,0.828.012,0.524,0.764,0.958,0.006-.074.012-0.147,0.019-0.221A1.108,1.108,0,0,0,101.318,15.151Zm3.307,0.957,0.421,0.037Zm-5.909-.294-0.689.608-0.019.221,0.21,0.018,0.249-.424,0.421,0.037Zm6.5,0.791,0.421,0.037Zm0.592,0.5,0.421,0.037Zm0.382,0.479,0.421,0.037Z"/>
        <path id="Color_Fill_11" data-name="Color Fill 11" class="medusa-baby-cls-11"
              d="M65.512,0.52c3.6,0.235,8.263.305,10.623,1.784,0.995,2.918,2.916,5.38,3.5,8.855C80.915,18.834,76.105,25.536,71.853,28l-5.912,2.475c-4.827,2.93-9.658,5.79-15.881,7.159-3.316.73-7.858-.482-11.231,0.513-2.62.773-4.77,3.664-8.519,4.384-8.019,1.541-20-8.669-20.043-15,2.386-2.964,3.791-6.633,6.12-9.51C23.412,9.346,35.006,3.367,46.959,1.034Z"/>

        <g id="spots">

                        <path id="spots-3" data-name="spots" class="medusa-baby-cls-12 medusa-spots"
                  d="M89.32,17.375l4,1,1.5,2.5-0.5,2.5-2.5.5-4.5-3.5v-1.5Z"/>
            <path id="spots-4" data-name="spots" class="medusa-baby-cls-12 medusa-spots"
                  d="M64.32,22.875c3.524-.1,5.058.371,7,1.5l0.5,3.5-4,5c-2.994-.063-3.353-0.467-5-1.5l-1-5Z"/>
                        <path id="spots-6" data-name="spots" class="medusa-baby-cls-12 medusa-spots"
                  d="M37.32,11.875l4.5,0.5,0.5,1-1,2c-2.666.831-4.474,1.518-7.5,1l-0.5-1C34.512,13.48,35.545,13.134,37.32,11.875Z"/>
                    </g>

    </g>


</svg>
        <svg id="marks">
</svg>    <svg>
        <style>
                             .medusa-head{
                     fill:#24BFD0;
                 }                 .medusa-body{
                     fill:#106976;
                 }                 .medusa-tail{
                     fill:#137673;
                 }                 .medusa-spots{
                     fill:#2871AF;
                 }                 .medusa-fin_bottom{
                     fill:#51AB73;
                 }                 .medusa-fin_top{
                     fill:#70190E;
                 }                 .medusa-tenticles{
                     fill:#F1A615;
                 }
        </style>
    </svg>
</svg>